<svg width="13" height="16" viewbox="0 0 13 16" xmlns="http://www.w3.org/2000/svg">
  <g clip-path="url(#a)">
    <path d="M3.25 10.86c0-.32-.1-.59-.32-.81a1.02 1.02 0 0 0-.76-.34 1.13 1.13 0 0 0-1.08 1.14c0 .32.1.6.31.82.21.22.47.33.77.33.3 0 .55-.11.76-.33.22-.23.32-.5.32-.81Zm8.66 0c0-.32-.1-.59-.31-.81a1.02 1.02 0 0 0-.77-.34c-.3 0-.55.12-.76.34-.22.22-.32.5-.32.8 0 .32.1.6.32.82.2.22.46.33.76.33s.56-.11.77-.33c.2-.23.31-.5.31-.81Zm-.38-3.54-.61-3.43a.59.59 0 0 0-.2-.33.5.5 0 0 0-.34-.13H2.62a.5.5 0 0 0-.35.13c-.1.08-.16.2-.19.33l-.6 3.43c-.03.18 0 .34.11.47.11.14.25.21.42.21h8.98a.5.5 0 0 0 .42-.2c.1-.14.14-.3.12-.48ZM9.6 1.86a.43.43 0 0 0-.12-.3.38.38 0 0 0-.28-.13H3.79c-.11 0-.2.04-.28.12a.43.43 0 0 0-.12.3c0 .13.04.23.12.31.07.08.17.13.28.13h5.42c.11 0 .2-.05.28-.13a.43.43 0 0 0 .12-.3ZM13 8.33v5.38H11.9v1.15c0 .31-.1.58-.31.8-.21.23-.47.34-.77.34-.3 0-.55-.11-.76-.33-.22-.23-.32-.5-.32-.81V13.7h-6.5v1.15c0 .31-.1.58-.32.8-.2.23-.46.34-.76.34s-.56-.11-.77-.33c-.2-.23-.31-.5-.31-.81V13.7H0V8.33c0-.67.07-1.33.21-2L1.1 2.3c.05-.47.32-.88.82-1.23.5-.35 1.15-.61 1.95-.8C4.66.1 5.54 0 6.5 0c.96 0 1.85.09 2.64.27.8.18 1.45.44 1.95.8.5.34.77.75.82 1.22l.9 4.05c.12.6.19 1.27.19 1.99Z" fill="#1D2E5B" />
  </g>
  <defs>
    <clipPath>
      <path d="M0 0h13v16H0z" />
    </clipPath>
  </defs>
</svg>
