<svg width="28" height="26" fill="none" xmlns="http://www.w3.org/2000/svg"><path fill-rule="evenodd" clip-rule="evenodd" d="M14 1.8c-4.23 0-8.46.71-10 2.13-1.27 1.19-1.7 3.27-1.84 4.6l-.02.18c0 .52.44.93.99.93L7 9.35l.1-.02a.96.96 0 0 0 .97-.93V6.56c0-.57.5-1.03 1.1-1.03h9.66c.6 0 1.1.46 1.1 1.03V8.4c0 .5.43.92.96.93l.1.02 3.88.3c.55 0 1-.42 1-.94l-.03-.19c-.14-1.32-.57-3.4-1.84-4.59-1.54-1.42-5.77-2.13-10-2.13Zm0 12.13c-1.1 0-1.98.84-1.98 1.87 0 1.03.89 1.87 1.98 1.87 1.1 0 1.98-.84 1.98-1.87 0-1.03-.89-1.87-1.98-1.87Zm-1.48-4.2V8.57a1.2 1.2 0 0 0-1.24-1.17 1.2 1.2 0 0 0-1.23 1.17v1.16l-6.67 6.73a2.27 2.27 0 0 0-.75 1.67V20c0 1.03.89 1.87 1.98 1.87h.5v1.17c0 .64.55 1.16 1.23 1.16a1.2 1.2 0 0 0 1.23-1.16v-1.17h12.86v1.17c0 .64.55 1.16 1.23 1.16a1.2 1.2 0 0 0 1.24-1.16v-1.17h.5c1.08 0 1.97-.84 1.97-1.87v-1.87c0-.65-.29-1.25-.75-1.67l-6.67-6.73V8.57a1.2 1.2 0 0 0-1.23-1.17 1.2 1.2 0 0 0-1.24 1.17v1.16h-2.96ZM14 12.07a3.85 3.85 0 0 1 3.95 3.73A3.85 3.85 0 0 1 14 19.54a3.85 3.85 0 0 1-3.95-3.74A3.85 3.85 0 0 1 14 12.07Z" fill="#FFD74B"/></svg>