<svg width="18" height="18" fill="none" xmlns="http://www.w3.org/2000/svg"><path d="M8.97 7.42c0 .2.16.34.35.34.38 0 .7.32.7.7 0 .18.15.33.34.33.19 0 .34-.15.34-.33 0-.76-.62-1.37-1.38-1.37a.34.34 0 0 0-.35.33Zm5.56 1.37c.2 0 .34-.15.34-.33 0-3.03-2.49-5.5-5.55-5.5a.34.34 0 0 0-.35.34c0 .19.16.34.35.34a4.85 4.85 0 0 1 4.87 4.82c0 .18.15.33.34.33Z" fill="#161C35"/><path d="M12.1 8.46c0 .18.16.33.35.33.18 0 .34-.15.34-.33 0-1.9-1.56-3.44-3.47-3.44a.34.34 0 0 0-.35.34c0 .2.16.34.35.34a2.78 2.78 0 0 1 2.78 2.76ZM9.32.9a.34.34 0 0 0-.35.34c0 .18.16.33.35.33a6.93 6.93 0 0 1 6.96 6.89c0 .18.15.33.34.33.19 0 .34-.15.34-.33A7.61 7.61 0 0 0 9.32.9Zm3.33 11.11-.45.24c-.75.41-1.34 1.53-2.27.69L7.5 10.5 5.4 8.46c-1.06-1.34.13-1.65.54-2.4l.24-.44a2.57 2.57 0 0 0-.45-3.1c-.5-.49-1.16-.76-1.87-.76-.7 0-1.37.27-1.87.76l-.17.18c-.93.91-1.03 2.48-.3 4.42A16.39 16.39 0 0 0 5.4 12.8c2.77 2.73 5.85 4.31 8.06 4.31.88 0 1.62-.25 2.14-.77l.18-.17a2.6 2.6 0 0 0 0-3.7c-.82-.81-2.1-1-3.13-.45Z" fill="#161C35"/></svg>