<svg width="13" height="13" viewBox="0 0 13 13" fill="none" xmlns="http://www.w3.org/2000/svg">
<g clip-path="url(#clip0_17126_2133)">
<path d="M3.25532 1.47406C4.94809 1.47406 6.31915 2.82156 6.31915 4.48385C6.31915 2.82156 7.69022 1.47406 9.38298 1.47406C11.0757 1.47406 12.4468 2.82156 12.4468 4.48385C12.4468 6.98919 9.96971 7.87293 6.61941 11.8609C6.58252 11.9047 6.53654 11.9399 6.48468 11.9641C6.43283 11.9882 6.37633 12.0007 6.31915 12.0007C6.26197 12.0007 6.20548 11.9882 6.15362 11.9641C6.10176 11.9399 6.05578 11.9047 6.0189 11.8609C2.6686 7.87293 0.19149 6.98919 0.19149 4.48385C0.19149 2.82156 1.56255 1.47406 3.25532 1.47406Z" fill="#F02323"/>
</g>
<defs>
<clipPath id="clip0_17126_2133">
<rect width="12.2553" height="12.2849" fill="white" transform="translate(0.19149 0.706238)"/>
</clipPath>
</defs>
</svg>
