<svg width="15" height="17" fill="none" xmlns="http://www.w3.org/2000/svg"><path opacity=".15" d="M10.96 14.88c-.52 0-1.02-.18-1.45-.52a3 3 0 0 1-.95-1.37 3.56 3.56 0 0 1-.15-1.77c.1-.59.35-1.13.71-1.56a2.5 2.5 0 0 1 1.33-.84c.5-.11 1.03-.05 1.5.18.48.23.88.62 1.17 1.12a3.45 3.45 0 0 1-.33 3.86c-.48.57-1.14.9-1.83.9Zm0-5.05c-.34 0-.66.11-.94.33-.28.22-.5.53-.63.9-.13.36-.16.76-.1 1.15.07.39.23.74.47 1.02.24.28.54.47.87.54.33.08.67.04.98-.1.3-.16.57-.42.76-.74a2.25 2.25 0 0 0-.21-2.52 1.58 1.58 0 0 0-1.2-.58ZM3.5 14.88c-.51 0-1.01-.18-1.44-.52a3 3 0 0 1-.96-1.37 3.56 3.56 0 0 1-.15-1.77c.1-.59.35-1.13.71-1.56A2.5 2.5 0 0 1 3 8.82c.5-.11 1.02-.05 1.5.18.47.23.88.62 1.16 1.12a3.45 3.45 0 0 1-.32 3.86c-.49.57-1.15.9-1.84.9Zm0-5.05c-.33 0-.66.11-.94.33-.28.22-.5.53-.62.9-.13.36-.17.76-.1 1.15.07.39.23.74.46 1.02.24.28.54.47.87.54.33.08.67.04.98-.1.31-.16.57-.42.76-.74a2.25 2.25 0 0 0-.21-2.52 1.58 1.58 0 0 0-1.2-.58ZM9.04 4.25c.12 0 .23-.03.34-.08a.9.9 0 0 0 .3-.23c.08-.1.15-.22.2-.35.04-.13.06-.27.06-.4a1.08 1.08 0 0 0-.26-.75.9.9 0 0 0-.3-.24.79.79 0 0 0-.7 0 .9.9 0 0 0-.28.23 1.23 1.23 0 0 0 0 1.5c.08.1.18.18.3.24.1.05.22.08.34.08Z" fill="#1D2E5B"/><path opacity=".15" d="M10.38 6.38H9.14a.1.1 0 0 1-.05-.02.13.13 0 0 1-.04-.05l-.9-1.94a1 1 0 0 0-.27-.36.81.81 0 0 0-.37-.18.75.75 0 0 0-.4.04.86.86 0 0 0-.36.25L4.78 6.45c-.16.2-.26.47-.26.75 0 .58.35.78.52.9A87.98 87.98 0 0 1 6.76 9.3l.02.07v2.3c0 .28.19.52.43.54a.4.4 0 0 0 .18-.04.45.45 0 0 0 .15-.1.61.61 0 0 0 .14-.38V8.82a.6.6 0 0 0-.05-.24.52.52 0 0 0-.14-.19l-1.04-.88a.13.13 0 0 1-.03-.04.15.15 0 0 1-.01-.11l.02-.05 1.19-1.49a.11.11 0 0 1 .04-.03.1.1 0 0 1 .1.01l.04.05.62 1.3c.04.09.1.16.16.2a.4.4 0 0 0 .23.08h1.58a.4.4 0 0 0 .18-.05c.06-.02.1-.06.15-.12a.55.55 0 0 0 .1-.18.62.62 0 0 0 .03-.2c-.02-.3-.23-.51-.47-.51Z" fill="#1D2E5B"/></svg>