<svg width="25" height="24" viewBox="0 0 25 24" fill="none" xmlns="http://www.w3.org/2000/svg">
<path opacity="0.15" d="M18.3075 21C17.4664 21 16.6442 20.7471 15.9449 20.2732C15.2456 19.7994 14.7005 19.1258 14.3786 18.3378C14.0568 17.5498 13.9726 16.6827 14.1366 15.8462C14.3007 15.0096 14.7057 14.2412 15.3005 13.6381C15.8952 13.035 16.6529 12.6243 17.4779 12.4579C18.3028 12.2915 19.1578 12.3769 19.9349 12.7033C20.7119 13.0297 21.3761 13.5824 21.8434 14.2916C22.3106 15.0008 22.5601 15.8346 22.5601 16.6875C22.5588 17.8309 22.1104 18.927 21.3132 19.7355C20.5159 20.544 19.435 20.9988 18.3075 21ZM18.3075 13.875C17.759 13.875 17.2228 14.04 16.7667 14.349C16.3106 14.658 15.9551 15.0973 15.7452 15.6112C15.5353 16.1251 15.4804 16.6906 15.5874 17.2362C15.6944 17.7818 15.9585 18.2829 16.3464 18.6762C16.7343 19.0696 17.2284 19.3374 17.7664 19.446C18.3044 19.5545 18.8621 19.4988 19.3688 19.2859C19.8756 19.073 20.3088 18.7126 20.6135 18.25C20.9182 17.7875 21.0809 17.2438 21.0809 16.6875C21.08 15.9418 20.7876 15.227 20.2676 14.6997C19.7477 14.1725 19.0428 13.8759 18.3075 13.875Z" fill="#1D2E5B"/>
<path opacity="0.15" d="M6.10462 21C5.26354 21 4.44135 20.7471 3.74202 20.2732C3.04269 19.7994 2.49763 19.1258 2.17576 18.3378C1.85389 17.5498 1.76968 16.6827 1.93376 15.8462C2.09785 15.0096 2.50287 14.2412 3.0976 13.6381C3.69233 13.035 4.45007 12.6243 5.27498 12.4579C6.0999 12.2915 6.95495 12.3769 7.732 12.7033C8.50906 13.0297 9.17322 13.5824 9.64049 14.2916C10.1078 15.0008 10.3572 15.8346 10.3572 16.6875C10.356 17.8309 9.90753 18.927 9.11028 19.7355C8.31304 20.544 7.23209 20.9988 6.10462 21ZM6.10462 13.875C5.55609 13.875 5.01988 14.04 4.56379 14.349C4.10771 14.658 3.75223 15.0973 3.54232 15.6112C3.33241 16.1251 3.27748 16.6906 3.3845 17.2362C3.49151 17.7818 3.75565 18.2829 4.14352 18.6762C4.53139 19.0696 5.02556 19.3374 5.56355 19.446C6.10154 19.5545 6.65918 19.4988 7.16595 19.2859C7.67273 19.073 8.10588 18.7126 8.41062 18.25C8.71537 17.7875 8.87803 17.2438 8.87803 16.6875C8.87717 15.9418 8.5847 15.227 8.06477 14.6997C7.54484 14.1725 6.83991 13.8759 6.10462 13.875Z" fill="#1D2E5B"/>
<path opacity="0.15" d="M15.1642 6.00005C15.3591 6.00073 15.5521 5.96225 15.7322 5.88681C15.9122 5.81138 16.0757 5.7005 16.2133 5.56058C16.3508 5.42065 16.4597 5.25447 16.5335 5.07163C16.6073 4.88879 16.6447 4.69293 16.6434 4.49536C16.6455 4.29878 16.609 4.10374 16.536 3.92164C16.4629 3.73954 16.3548 3.57403 16.218 3.4348C16.0811 3.29558 15.9182 3.18542 15.7389 3.11077C15.5595 3.03612 15.3673 2.99848 15.1735 3.00005C14.9792 2.99943 14.7868 3.03762 14.6071 3.11243C14.4274 3.18725 14.264 3.29722 14.1262 3.43607C13.9884 3.57493 13.879 3.73994 13.8041 3.92169C13.7292 4.10344 13.6903 4.29838 13.6897 4.49536C13.6891 4.69234 13.7268 4.88752 13.8005 5.06974C13.8743 5.25197 13.9827 5.41767 14.1197 5.55739C14.2566 5.69712 14.4193 5.80812 14.5985 5.88407C14.7778 5.96002 14.97 5.99943 15.1642 6.00005Z" fill="#1D2E5B"/>
<path opacity="0.15" d="M17.3622 9.00003H15.3395C15.3063 9.00004 15.2737 8.99099 15.2452 8.97384C15.2167 8.95668 15.1932 8.93205 15.1773 8.90253L13.7101 6.17581C13.6068 5.97318 13.4578 5.79807 13.2753 5.66467C13.0928 5.53127 12.8818 5.44333 12.6596 5.40795C12.4373 5.37258 12.21 5.39077 11.996 5.46106C11.7819 5.53135 11.5872 5.65175 11.4276 5.81253L8.19843 9.11253C7.92715 9.39333 7.77316 9.76945 7.76855 10.1625C7.76855 10.9782 8.35097 11.2688 8.62369 11.4328C9.94106 12.2025 10.8688 12.7655 11.3777 13.0782C11.4047 13.0949 11.4271 13.1183 11.4427 13.1463C11.4582 13.1743 11.4664 13.2059 11.4664 13.238V16.478C11.4664 16.8816 11.7724 17.228 12.1704 17.2482C12.2703 17.253 12.3702 17.2373 12.464 17.2019C12.5577 17.1666 12.6434 17.1123 12.7159 17.0423C12.7883 16.9724 12.8461 16.8883 12.8855 16.7951C12.925 16.7018 12.9455 16.6015 12.9456 16.5V12.4688C12.9457 12.3497 12.9178 12.2324 12.8642 12.1264C12.8107 12.0204 12.7331 11.9289 12.6377 11.8594L10.9275 10.6121C10.906 10.5965 10.8881 10.5764 10.8749 10.5532C10.8617 10.53 10.8536 10.5043 10.851 10.4776C10.8485 10.451 10.8516 10.4241 10.8602 10.3988C10.8687 10.3734 10.8825 10.3503 10.9007 10.3308L12.842 8.23128C12.862 8.20968 12.8866 8.19316 12.914 8.18307C12.9414 8.17297 12.9708 8.1696 12.9997 8.17321C13.0287 8.17682 13.0563 8.18731 13.0805 8.20384C13.1047 8.22037 13.1247 8.24246 13.1388 8.26831L14.1474 10.1143C14.2115 10.2313 14.3053 10.3288 14.4191 10.3966C14.5329 10.4644 14.6625 10.5001 14.7945 10.5H17.383C17.4832 10.5002 17.5824 10.4796 17.6745 10.4397C17.7667 10.3998 17.8498 10.3413 17.919 10.2678C17.9882 10.1942 18.0419 10.1073 18.0769 10.012C18.1119 9.91685 18.1274 9.81542 18.1226 9.71394C18.1032 9.31035 17.7602 9.00003 17.3622 9.00003Z" fill="#1D2E5B"/>
</svg>
