<svg width="14" height="17" viewbox="0 0 14 17" xmlns="http://www.w3.org/2000/svg">
    <path d="M9.31 4.25c.6 0 1.1-.63 1.1-1.42 0-.78-.5-1.41-1.1-1.41-.6 0-1.1.63-1.1 1.41 0 .79.5 1.42 1.1 1.42ZM8.64 7.77c.13.24.3.43.52.53.2.1.44.13.66.06l1.81-.59-.26-1.37-1.82.58-.75-1.46a1.14 1.14 0 0 0-.7-.6L6 4.36a.87.87 0 0 0-.7.12c-.22.13-.4.36-.5.63l-.9 2.35.97.64.91-2.35 1.08.28-2.79 6H1.64v1.42h2.43c.38 0 .74-.27.94-.69l1.05-2.26 2.83.73 1 3.86 1.04-.45-1-3.86a1.5 1.5 0 0 0-.31-.61 1.03 1.03 0 0 0-.51-.33l-1.67-.43.97-2.1.23.45Z"/>
</svg>
